<svg width="809" height="272" viewBox="0 0 809 272" fill="none" xmlns="http://www.w3.org/2000/svg">
<path d="M81.667 56.333C81.222 56.778 82.278 56.722 82.333 56.667C82.778 56.222 81.722 56.278 81.667 56.333Z" fill="#655954"/>
<path d="M83.667 56.333C83.222 56.778 84.278 56.722 84.333 56.667C84.778 56.222 83.722 56.278 83.667 56.333Z" fill="#E55D32"/>
<path d="M55 164C57.295 158.531 56 150.901 56 145C57.684 145.224 58.313 145.218 60 145C61.297 146.92 61.791 147.316 64 148V143C68.823 143.43 72.502 141.419 77.05 140.206C87.471 137.427 97.717 137.213 98 124H102C102.021 126.849 102.19 129.271 103 132C105.752 125.442 103.315 117.004 104.109 110.004C104.6 105.669 107.452 102.567 112.001 104.118C113.758 104.717 115.377 105.813 117 106.695C119.661 108.141 122.321 109.59 125 111L124 109C132.682 111.72 143.818 107.076 153 107V111C157.154 109.136 161.59 107.102 164.85 103.85C167.459 101.248 168.841 97.88 172 96C170.965 97.186 170.661 97.604 170 99C172.683 99.612 175.267 99.781 178 100L177 96C181.627 97.696 186.22 98.845 191 100C183.826 92.811 170.219 89.436 161 85.231C153.713 81.906 146.348 78.763 139 75.576C116.057 65.624 80.174 41.497 60.468 70.015C53.584 79.976 55 91.519 55 103V164Z" fill="#23F0F3"/>
<path d="M91.667 56.333C91.222 56.778 92.278 56.722 92.333 56.667C92.778 56.222 91.722 56.278 91.667 56.333Z" fill="#655954"/>
<path d="M382 68V159V182C382 184.693 381.228 189.125 383.028 191.397C386.011 195.163 398.571 193 403 193V68C401.339 71.959 402 76.74 402 81V106V192H383V106V81C383 76.74 383.661 71.959 382 68Z" fill="#655954"/>
<path d="M383 68V192H402V68H383Z" fill="#F7EEE5"/>
<path d="M279 71C284.216 73.189 291.381 72 297 72H334C328.784 69.811 321.619 71 316 71H279Z" fill="#655954"/>
<path d="M279 72V192H299V152C317.529 152 339.505 155.031 356 144.728C378.884 130.435 378.589 92.825 356 78.559C345.386 71.857 333.05 72 321 72H279Z" fill="#F7EEE5"/>
<path d="M55.333 79.667C55.278 79.722 55.222 80.778 55.667 80.333C55.722 80.278 55.778 79.222 55.333 79.667Z" fill="#655954"/>
<path d="M54 83V86C54.696 84.446 54.696 84.554 54 83Z" fill="#655954"/>
<path d="M54 86V165C54 177.764 52.222 192.214 60.529 203C69.454 214.588 84.016 219.255 98 215.218C107.229 212.554 116.269 207.307 125 203.309L177 179.46C189.278 173.823 205.919 169.251 215.815 159.854C230.357 146.045 229.036 121.31 212.961 109.301C202.471 101.464 189.263 99.335 177 96L178 100L170 99C170.545 97.365 170.365 97.545 172 97C169.083 95.905 168.274 99.199 166.505 101.255C162.593 105.799 157.909 107.878 153 111V107C143.587 107.026 133.087 111.105 124 109C130.865 117.009 144.713 122.209 154 127.23C157.442 129.091 164.294 131.438 164.824 136.003C165.376 140.757 157.283 144.254 154 146.255C143.15 152.868 131.904 158.861 121 165.4C117.656 167.405 112.241 172.183 108.059 170.607C103.706 168.967 104.008 163.788 104 160C103.984 152.049 104.488 143.932 103.946 136C103.666 131.895 102.12 128.158 102 124H98C97.396 136.99 86.304 137.477 76.155 140.206C71.978 141.329 68.432 143.184 64 143V148C62.061 147.108 61.481 146.598 60 145H56V164C54.054 157.416 55 149.834 55 143V106C55 99.846 56.395 91.707 54 86Z" fill="#02E4E8"/>
<path d="M299 89V122C299 125.151 297.784 131.739 300.603 133.972C302.875 135.772 307.307 135 310 135H332C328.301 133.448 323.983 134 320 134H300V104C300 99.191 300.875 93.469 299 89Z" fill="#F08E44"/>
<path d="M300 89V134C312.248 134 328.628 136.841 340 131.647C354.433 125.055 356.766 101.646 342.996 92.995C331.467 85.751 312.989 89 300 89Z" fill="#191513"/>
<path d="M332.667 89.333C332.222 89.778 333.278 89.722 333.333 89.667C333.778 89.222 332.722 89.278 332.667 89.333Z" fill="#655954"/>
<path d="M371.333 98.667C371.278 98.722 371.222 99.778 371.667 99.333C371.722 99.278 371.778 98.222 371.333 98.667Z" fill="#655954"/>
<path d="M372 102V105C372.696 103.446 372.696 103.554 372 102Z" fill="#655954"/>
<path d="M107.228 103.758C102.183 105.924 104 115.653 104 120V160C104.003 166.17 104.861 173.023 113 170.181C118.286 168.336 123.201 164.443 128 161.603C136.301 156.692 144.814 152.164 153 147.05C156.717 144.728 164.399 142.003 164.793 136.925C165.208 131.591 157.779 128.88 154 126.72C143.072 120.473 132.035 114.365 121 108.306C117.279 106.262 111.72 101.83 107.228 103.758Z" fill="#F7EEE5"/>
<path d="M451.667 103.333C451.222 103.778 452.278 103.722 452.333 103.667C452.778 103.222 451.722 103.278 451.667 103.333Z" fill="#655954"/>
<path d="M453 103C455.331 103.985 457.457 103.981 460 104C457.668 103.015 455.543 103.019 453 103Z" fill="#F08E44"/>
<path d="M654 103C656.33 103.985 658.46 103.981 661 104C658.67 103.015 656.54 103.019 654 103ZM701 103C704.16 104.327 707.59 104 711 104C707.84 102.673 704.41 103 701 103Z" fill="#655954"/>
<path d="M485 180C486.235 183.907 486.824 187.903 487 192H505L506 106H486V118C478.769 108.589 468.744 104.014 457 104C448.235 103.989 440.533 105.792 433 110.468C407.212 126.474 406.652 168.772 431 186.211C445.998 196.954 475.038 198.805 485 180Z" fill="#F7EEE5"/>
<path d="M630 121C628.565 116.147 629 111.036 629 106H610V192H629C629 170.203 621.465 132.288 649 124.429C652.67 123.382 656.2 123.031 660 123V104C647.74 104 634.409 108.032 630 121Z" fill="#F7EEE5"/>
<path d="M660 104V123C662.02 118.187 662.02 108.813 660 104Z" fill="#F08E44"/>
<path d="M737 180V192H756V106H737V118C721.47 99.088 690.92 99.209 675.01 118.089C661.16 134.529 660 159.365 672.44 176.999C676.65 182.966 682.32 187.587 689 190.561C696.48 193.892 703.88 194.506 712 193.91C722.54 193.137 729.81 187.167 737 180Z" fill="#F7EEE5"/>
<path d="M716.67 104.333C716.22 104.778 717.28 104.722 717.33 104.667C717.78 104.222 716.72 104.278 716.67 104.333ZM593 105C596.404 106.429 600.364 106.134 604 107C600.734 104.526 596.99 105 593 105Z" fill="#655954"/>
<path d="M513 106C519.632 125.605 528.413 144.909 536.424 164C538.934 169.982 541.386 175.978 543.8 182C544.918 184.789 546.732 187.928 546.732 191C546.732 194.721 544.283 198.663 542.85 202C539.388 210.058 534.497 218.309 533 227C537.997 227 549.237 229.115 553.031 225.397C555.591 222.887 556.797 218.247 558.139 215C561.172 207.662 564.141 200.298 567.281 193C574.698 175.761 581.497 158.265 588.85 141C593.633 129.771 600.185 117.853 603 106H582C579.759 114.194 576.026 122.045 573.05 130C568.303 142.693 563.743 155.723 558 168C552.874 152.848 546.648 137.891 540.797 123C539.084 118.639 537.509 109.789 533.501 107.028C529.023 103.943 518.296 106 513 106Z" fill="#F7EEE5"/>
<path d="M609 106V192C611.395 186.293 610 178.154 610 172V128C610 121.314 611.599 112.194 609 106Z" fill="#F08E44"/>
<path d="M756 106V192C758.39 186.293 757 178.154 757 172V128C757 121.314 758.6 112.194 756 106Z" fill="#655954"/>
<path d="M352 108V114C352.951 111.715 352.951 110.285 352 108Z" fill="#F08E44"/>
<path d="M707 121C708.51 121.683 709.31 121.826 711 122C709.49 121.317 708.69 121.174 707 121Z" fill="#F08E44"/>
<path d="M454 122.518C426.831 128.323 426.9 169.331 454 175.181C458.118 176.069 461.903 175.891 466 174.985C492.755 169.065 492.011 127.564 465 122.468C461.45 121.798 457.538 121.762 454 122.518Z" fill="#191513"/>
<path d="M465.667 122.333C465.222 122.778 466.278 122.722 466.333 122.667C466.778 122.222 465.722 122.278 465.667 122.333Z" fill="#655954"/>
<path d="M703.67 122.333C703.22 122.778 704.28 122.722 704.33 122.667C704.78 122.222 703.72 122.278 703.67 122.333Z" fill="#655954"/>
<path d="M705 122.468C677.31 127.691 677.92 169.767 705 175.192C708.29 175.851 711.67 176.251 715 175.671C742.59 170.877 743.77 129.62 717 122.761C713.15 121.775 708.9 121.732 705 122.468Z" fill="#191513"/>
<path d="M371.333 123.667C371.278 123.722 371.222 124.777 371.667 124.333C371.722 124.278 371.778 123.222 371.333 123.667Z" fill="#655954"/>
<path d="M652.67 123.333C652.22 123.778 653.28 123.722 653.33 123.667C653.78 123.222 652.72 123.278 652.67 123.333Z" fill="#F08E44"/>
<path d="M654 123C656.33 123.985 658.46 123.981 661 124C658.67 123.015 656.54 123.019 654 123ZM719.67 123.333C719.22 123.777 720.28 123.722 720.33 123.667C720.78 123.222 719.72 123.278 719.67 123.333ZM224.333 124.667C224.278 124.722 224.222 125.778 224.667 125.333C224.722 125.278 224.778 124.222 224.333 124.667Z" fill="#655954"/>
<path d="M225.333 127.667C225.278 127.722 225.222 128.778 225.667 128.333C225.722 128.278 225.778 127.222 225.333 127.667Z" fill="#655954"/>
<path d="M161.667 131.333C161.222 131.778 162.278 131.722 162.333 131.667C162.778 131.222 161.722 131.278 161.667 131.333Z" fill="#F08E44"/>
<path d="M334.667 133.333C334.222 133.778 335.278 133.722 335.333 133.667C335.778 133.222 334.722 133.278 334.667 133.333Z" fill="#655954"/>
<path d="M665.33 134.667C665.28 134.722 665.22 135.778 665.67 135.333C665.72 135.278 665.78 134.222 665.33 134.667Z" fill="#655954"/>
<path d="M165 135V138C165.696 136.446 165.696 136.554 165 135Z" fill="#F08E44"/>
<path d="M414.333 135.667C414.278 135.722 414.222 136.778 414.667 136.333C414.722 136.278 414.778 135.222 414.333 135.667Z" fill="#655954"/>
<path d="M664.33 138.667C664.28 138.722 664.22 139.778 664.67 139.333C664.72 139.278 664.78 138.222 664.33 138.667Z" fill="#655954"/>
<path d="M413.333 140.667C413.278 140.722 413.222 141.778 413.667 141.333C413.722 141.278 413.778 140.222 413.333 140.667Z" fill="#655954"/>
<path d="M413 142V145C413.696 143.446 413.696 143.554 413 142Z" fill="#F08E44"/>
<path d="M630.333 142.667C630.278 142.722 630.222 143.778 630.667 143.333C630.722 143.278 630.778 142.222 630.333 142.667ZM684 142V145C684.7 143.446 684.7 143.554 684 142Z" fill="#655954"/>
<path d="M433.333 143.667C433.278 143.722 433.222 144.778 433.667 144.333C433.722 144.278 433.778 143.222 433.333 143.667Z" fill="#655954"/>
<path d="M736.33 143.667C736.28 143.722 736.22 144.778 736.67 144.333C736.72 144.278 736.78 143.222 736.33 143.667Z" fill="#655954"/>
<path d="M663 144V153C664.26 150.006 664.26 146.994 663 144Z" fill="#655954"/>
<path d="M629 145V148C629.696 146.446 629.696 146.554 629 145Z" fill="#F08E44"/>
<path d="M629.333 148.667C629.278 148.722 629.222 149.778 629.667 149.333C629.722 149.278 629.778 148.222 629.333 148.667ZM345.667 149.333C345.222 149.778 346.278 149.722 346.333 149.667C346.778 149.222 345.722 149.278 345.667 149.333Z" fill="#655954"/>
<path d="M334 151C335.248 151.685 335.549 151.749 337 152C335.752 151.315 335.451 151.251 334 151Z" fill="#F08E44"/>
<path d="M337.667 151.333C337.222 151.778 338.278 151.722 338.333 151.667C338.778 151.222 337.722 151.278 337.667 151.333ZM433 151V154C433.696 152.446 433.696 152.554 433 151Z" fill="#655954"/>
<path d="M299 152V192C300.552 188.301 300 183.983 300 180C300 171.729 302.206 159.639 299 152Z" fill="#F08E44"/>
<path d="M736.33 152.667C736.28 152.722 736.22 153.778 736.67 153.333C736.72 153.278 736.78 152.222 736.33 152.667Z" fill="#655954"/>
<path d="M413.333 153.667C413.278 153.722 413.222 154.778 413.667 154.333C413.722 154.278 413.778 153.222 413.333 153.667Z" fill="#F08E44"/>
<path d="M485.333 153.667C485.278 153.722 485.222 154.778 485.667 154.333C485.722 154.278 485.778 153.222 485.333 153.667Z" fill="#655954"/>
<path d="M684.33 153.667C684.28 153.722 684.22 154.777 684.67 154.333C684.72 154.278 684.78 153.222 684.33 153.667Z" fill="#655954"/>
<path d="M413 155V158C413.696 156.446 413.696 156.554 413 155Z" fill="#655954"/>
<path d="M664.33 158.667C664.28 158.722 664.22 159.778 664.67 159.333C664.72 159.278 664.78 158.222 664.33 158.667Z" fill="#655954"/>
<path d="M108 171C109.248 171.685 109.548 171.749 111 172C109.752 171.315 109.452 171.251 108 171Z" fill="#F08E44"/>
<path d="M454.667 175.333C454.222 175.778 455.278 175.722 455.333 175.667C455.778 175.222 454.722 175.278 454.667 175.333ZM463.667 175.333C463.222 175.778 464.278 175.722 464.333 175.667C464.778 175.222 463.722 175.278 463.667 175.333Z" fill="#655954"/>
<path d="M705.67 175.333C705.22 175.778 706.28 175.722 706.33 175.667C706.78 175.222 705.72 175.278 705.67 175.333Z" fill="#655954"/>
<path d="M505 180V192C506.512 188.396 506.512 183.604 505 180Z" fill="#F08E44"/>
<path d="M486 186V192C486.951 189.715 486.951 188.285 486 186Z" fill="#F08E44"/>
<path d="M54.333 188.667C54.278 188.722 54.222 189.778 54.667 189.333C54.722 189.278 54.778 188.222 54.333 188.667Z" fill="#655954"/>
<path d="M547.333 190.667C547.278 190.722 547.222 191.778 547.667 191.333C547.722 191.278 547.778 190.222 547.333 190.667Z" fill="#F08E44"/>
<path d="M55.333 192.667C55.278 192.722 55.222 193.778 55.667 193.333C55.722 193.278 55.778 192.222 55.333 192.667ZM279 192C284.959 194.5 293.564 193 300 193C294.041 190.5 285.436 192 279 192Z" fill="#655954"/>
<path d="M486 192C491.715 194.398 499.831 193 506 193C500.285 190.602 492.169 192 486 192ZM610 192C615.469 194.295 623.099 193 629 193C623.531 190.705 615.901 192 610 192ZM737 192C742.47 194.295 750.1 193 756 193C750.53 190.705 742.9 192 737 192ZM465.667 193.333C465.222 193.778 466.278 193.722 466.333 193.667C466.778 193.222 465.722 193.278 465.667 193.333Z" fill="#655954"/>
<path d="M451.667 194.333C451.222 194.778 452.278 194.722 452.333 194.667C452.778 194.222 451.722 194.278 451.667 194.333Z" fill="#655954"/>
<path d="M453 194C455.332 194.985 457.457 194.981 460 195C457.668 194.015 455.543 194.019 453 194Z" fill="#F08E44"/>
<path d="M701 194C704.16 195.327 707.59 195 711 195C707.84 193.673 704.41 194 701 194Z" fill="#655954"/>
<path d="M77.667 215.333C77.222 215.778 78.278 215.722 78.333 215.667C78.778 215.222 77.722 215.278 77.667 215.333ZM81 216C82.248 216.685 82.548 216.749 84 217C82.752 216.315 82.452 216.251 81 216ZM91 216C92.248 216.685 92.548 216.749 94 217C92.752 216.315 92.452 216.251 91 216Z" fill="#655954"/>
</svg>
