<svg width="160" height="144" viewBox="0 0 160 144" fill="none" xmlns="http://www.w3.org/2000/svg">
<path d="M18 108C19.875 103.531 19 97.809 19 93C19 85.28 19.979 77.688 20 70C20.562 71.801 20.824 73.122 21 75C26.479 74.985 32.704 74.988 36 70C39.092 72.022 41.509 70.442 45 70C47.016 66.792 49.368 66.869 53 67C53.417 61.72 52.984 55.082 54.318 50.02C54.823 48.105 55.955 46.334 58.059 45.997C60.762 45.564 63.734 47.816 66 49L65 47C67.692 48.069 69.859 49.062 72 51C77.14 48.727 80.112 45.741 86 47C89.661 40.356 100.399 41.687 107 42C105.814 43.186 105.472 43.584 105 45C109.28 44.731 112.537 44.77 116 42C109.994 37.964 102.576 35.702 96 32.691C90.687 30.259 85.362 27.901 80 25.576C62.966 18.187 37.332 1.62702 22.638 22.004C16.751 30.167 18 40.512 18 50V108Z" fill="#23F0F3"/>
<path d="M86 47C80.151 45.324 76.814 47.872 72 51C70.172 48.514 67.951 47.823 65 47C71.196 53.76 81.159 57.248 89 61.861C91.725 63.464 96.697 65.734 97.654 69.05C98.729 72.769 92.423 75.431 90 76.95C82.449 81.682 74.644 85.98 67 90.551C64.413 92.098 60.329 95.249 57.148 93.839C53.807 92.359 54.022 88.026 54.001 85C53.948 77.334 54 69.666 54 62C53.221 63.769 53.088 65.036 53 67C49.299 66.42 46.188 65.943 45 70C42.157 70.179 39.501 71.313 37 70C31.856 73.537 27.228 74.948 21 75V70C18.351 76.255 19 84.298 19 91C19 97.651 17.863 105.529 19.558 112C21.946 121.116 30.936 127.256 40 127.91C50.685 128.68 60.696 122.797 70 118.245C83.799 111.492 98.03 105.489 112 99.08C119.991 95.415 130.475 92.105 136.671 85.699C152.295 69.545 137.64 47.176 119.004 42.998C114.964 42.093 109.132 44.295 105 45C106.186 43.814 106.528 43.416 107 42C101.03 41.147 88.294 40.082 86 47Z" fill="#02E4E8"/>
<path d="M142.333 62.667C142.278 62.722 142.222 63.778 142.667 63.333C142.722 63.278 142.778 62.222 142.333 62.667ZM142 73V76C142.696 74.446 142.696 74.554 142 73Z" fill="#655954"/>
<path d="M101.667 103.333C101.223 103.777 102.278 103.722 102.333 103.667C102.778 103.222 101.722 103.278 101.667 103.333ZM18.333 108.667C18.278 108.722 18.222 109.778 18.667 109.333C18.722 109.278 18.778 108.222 18.333 108.667ZM75.667 115.333C75.223 115.777 76.278 115.722 76.333 115.667C76.778 115.222 75.722 115.278 75.667 115.333ZM35.667 127.333C35.223 127.777 36.278 127.722 36.333 127.667C36.778 127.222 35.722 127.278 35.667 127.333ZM40 128C41.769 128.779 43.036 128.912 45 129C43.231 128.221 41.964 128.088 40 128Z" fill="#655954"/>
</svg>
